# xmcd CD database file
#
# Track frame offsets:
#	150
#	30726
#	54862
#	72945
#	98717
#	116467
#	155737
#	180864
#	208039
#	231674
#	255955
#	286461
#
# Disc length: 4441 seconds
#
# Revision: 0
# Processed by: cddbd v1.5.1PL2 Copyright (c) Steve Scherf et al.
# Submitted via: CDex 1.70beta2
#
DISCID=a011570c
DTITLE=Sekoya - Dalawa
DYEAR=2006
DGENRE=Jazz
TTITLE0=Introducing The Highlife
TTITLE1=Face On Yo Magazine
TTITLE2=Love's In Need
TTITLE3=Andromeda
TTITLE4=Bill
TTITLE5=My Will
TTITLE6=Follow Me
TTITLE7=Dalawa
TTITLE8=Twilite Speaks
TTITLE9=Get What Cha Want
TTITLE10=Self Control
TTITLE11=Lacuna
EXTD=YEAR: 2006
EXTT0=
EXTT1=
EXTT2=
EXTT3=
EXTT4=
EXTT5=
EXTT6=
EXTT7=
EXTT8=
EXTT9=
EXTT10=
EXTT11=
PLAYORDER=
